<svg width="1219" height="873" viewBox="0 0 1219 873" fill="none" xmlns="http://www.w3.org/2000/svg">
<path d="M285.827 709.008C318.546 709.008 345.07 682.484 345.07 649.765C345.07 617.046 318.546 590.521 285.827 590.521C253.108 590.521 226.583 617.046 226.583 649.765C226.583 682.484 253.108 709.008 285.827 709.008Z" fill="#F2F2F2"/>
<path d="M295.46 700.338C328.179 700.338 354.703 673.814 354.703 641.095C354.703 608.376 328.179 581.852 295.46 581.852C262.741 581.852 236.217 608.376 236.217 641.095C236.217 673.814 262.741 700.338 295.46 700.338Z" fill="#9FA8DA"/>
<path d="M1076.17 575.543H343.171V577.543H1076.17V575.543Z" fill="#3F3D56"/>
<path d="M722.793 146.652H462.623V141.29H344.652V146.652H83.41C81.099 146.652 78.8105 147.108 76.6754 147.992C74.5402 148.876 72.6002 150.173 70.966 151.807C69.3318 153.441 68.0355 155.381 67.1511 157.516C66.2667 159.651 65.8115 161.94 65.8115 164.251V520.503C65.8115 525.17 67.6656 529.647 70.966 532.947C74.2664 536.247 78.7426 538.102 83.41 538.102H722.793C727.46 538.102 731.936 536.247 735.237 532.947C738.537 529.647 740.391 525.17 740.391 520.503V164.251C740.391 161.94 739.936 159.651 739.052 157.516C738.167 155.381 736.871 153.441 735.237 151.807C733.603 150.173 731.663 148.876 729.527 147.992C727.392 147.108 725.104 146.652 722.793 146.652V146.652Z" fill="#3F3D56"/>
<path d="M716.797 177.754H89.4058V531.667H716.797V177.754Z" fill="#9FA8DA"/>
<path d="M402.565 168.101C406.119 168.101 409 165.22 409 161.666C409 158.112 406.119 155.231 402.565 155.231C399.011 155.231 396.13 158.112 396.13 161.666C396.13 165.22 399.011 168.101 402.565 168.101Z" fill="#9FA8DA"/>
<path opacity="0.1" d="M537.374 531.667H89.406V177.754L537.374 531.667Z" fill="black"/>
<path d="M187.574 505.183C220.88 505.183 247.881 478.183 247.881 444.876C247.881 411.57 220.88 384.569 187.574 384.569C154.267 384.569 127.267 411.57 127.267 444.876C127.267 478.183 154.267 505.183 187.574 505.183Z" fill="#F2F2F2"/>
<path d="M607.558 368.622H548.953V380.868H607.558V368.622Z" fill="#3F3D56"/>
<path d="M678.409 273.279H478.102V278.528H678.409V273.279Z" fill="#3F3D56"/>
<path d="M678.409 289.898H478.102V295.147H678.409V289.898Z" fill="#3F3D56"/>
<path d="M678.409 306.518H478.102V311.766H678.409V306.518Z" fill="#3F3D56"/>
<path d="M678.409 323.137H478.102V328.385H678.409V323.137Z" fill="#3F3D56"/>
<path d="M678.409 339.757H478.102V345.005H678.409V339.757Z" fill="#3F3D56"/>
<path d="M678.409 184.934H653.917V209.425H678.409V184.934Z" fill="#F2F2F2"/>
<path d="M689.78 220.797H660.04V191.057H689.78V220.797ZM661.333 219.504H688.487V192.35H661.333V219.504Z" fill="#3F3D56"/>
<path d="M758.007 525.232H696.778V520.82C696.778 520.705 696.755 520.591 696.711 520.485C696.667 520.379 696.603 520.283 696.522 520.201C696.44 520.12 696.344 520.056 696.238 520.012C696.132 519.968 696.018 519.945 695.903 519.945H674.91C674.795 519.945 674.682 519.968 674.575 520.012C674.469 520.056 674.373 520.12 674.292 520.201C674.21 520.283 674.146 520.379 674.102 520.485C674.058 520.591 674.035 520.705 674.035 520.82V525.232H660.915V520.82C660.915 520.705 660.892 520.591 660.848 520.485C660.804 520.379 660.74 520.283 660.659 520.201C660.577 520.12 660.481 520.056 660.375 520.012C660.269 519.968 660.155 519.945 660.04 519.945H639.047C638.932 519.945 638.819 519.968 638.713 520.012C638.606 520.056 638.51 520.12 638.429 520.201C638.348 520.283 638.283 520.379 638.239 520.485C638.195 520.591 638.173 520.705 638.173 520.82V525.232H625.052V520.82C625.052 520.705 625.029 520.591 624.985 520.485C624.942 520.379 624.877 520.283 624.796 520.201C624.715 520.12 624.618 520.056 624.512 520.012C624.406 519.968 624.292 519.945 624.177 519.945H603.184C603.07 519.945 602.956 519.968 602.85 520.012C602.744 520.056 602.647 520.12 602.566 520.201C602.485 520.283 602.42 520.379 602.376 520.485C602.332 520.591 602.31 520.705 602.31 520.82V525.232H589.189V520.82C589.189 520.705 589.167 520.591 589.123 520.485C589.079 520.379 589.014 520.283 588.933 520.201C588.852 520.12 588.755 520.056 588.649 520.012C588.543 519.968 588.429 519.945 588.314 519.945H567.322C567.207 519.945 567.093 519.968 566.987 520.012C566.881 520.056 566.784 520.12 566.703 520.201C566.622 520.283 566.557 520.379 566.513 520.485C566.469 520.591 566.447 520.705 566.447 520.82V525.232H553.326V520.82C553.326 520.705 553.304 520.591 553.26 520.485C553.216 520.379 553.151 520.283 553.07 520.201C552.989 520.12 552.892 520.056 552.786 520.012C552.68 519.968 552.566 519.945 552.452 519.945H531.459C531.344 519.945 531.23 519.968 531.124 520.012C531.018 520.056 530.921 520.12 530.84 520.201C530.759 520.283 530.694 520.379 530.651 520.485C530.607 520.591 530.584 520.705 530.584 520.82V525.232H517.463V520.82C517.463 520.705 517.441 520.591 517.397 520.485C517.353 520.379 517.288 520.283 517.207 520.201C517.126 520.12 517.03 520.056 516.923 520.012C516.817 519.968 516.704 519.945 516.589 519.945H495.596C495.481 519.945 495.367 519.968 495.261 520.012C495.155 520.056 495.058 520.12 494.977 520.201C494.896 520.283 494.832 520.379 494.788 520.485C494.744 520.591 494.721 520.705 494.721 520.82V525.232H481.6V520.82C481.6 520.705 481.578 520.591 481.534 520.485C481.49 520.379 481.425 520.283 481.344 520.201C481.263 520.12 481.167 520.056 481.06 520.012C480.954 519.968 480.841 519.945 480.726 519.945H316.281C316.166 519.945 316.053 519.968 315.947 520.012C315.84 520.056 315.744 520.12 315.663 520.201C315.582 520.283 315.517 520.379 315.473 520.485C315.429 520.591 315.407 520.705 315.407 520.82V525.232H302.286V520.82C302.286 520.705 302.263 520.591 302.219 520.485C302.176 520.379 302.111 520.283 302.03 520.201C301.949 520.12 301.852 520.056 301.746 520.012C301.64 519.968 301.526 519.945 301.411 519.945H280.418C280.304 519.945 280.19 519.968 280.084 520.012C279.978 520.056 279.881 520.12 279.8 520.201C279.719 520.283 279.654 520.379 279.61 520.485C279.566 520.591 279.544 520.705 279.544 520.82V525.232H266.423V520.82C266.423 520.705 266.401 520.591 266.357 520.485C266.313 520.379 266.248 520.283 266.167 520.201C266.086 520.12 265.989 520.056 265.883 520.012C265.777 519.968 265.663 519.945 265.548 519.945H244.556C244.441 519.945 244.327 519.968 244.221 520.012C244.115 520.056 244.018 520.12 243.937 520.201C243.856 520.283 243.791 520.379 243.747 520.485C243.703 520.591 243.681 520.705 243.681 520.82V525.232H230.56V520.82C230.56 520.705 230.538 520.591 230.494 520.485C230.45 520.379 230.385 520.283 230.304 520.201C230.223 520.12 230.126 520.056 230.02 520.012C229.914 519.968 229.8 519.945 229.686 519.945H208.693C208.578 519.945 208.464 519.968 208.358 520.012C208.252 520.056 208.155 520.12 208.074 520.201C207.993 520.283 207.928 520.379 207.885 520.485C207.841 520.591 207.818 520.705 207.818 520.82V525.232H194.697V520.82C194.697 520.705 194.675 520.591 194.631 520.485C194.587 520.379 194.522 520.283 194.441 520.201C194.36 520.12 194.264 520.056 194.157 520.012C194.051 519.968 193.938 519.945 193.823 519.945H172.83C172.715 519.945 172.601 519.968 172.495 520.012C172.389 520.056 172.292 520.12 172.211 520.201C172.13 520.283 172.066 520.379 172.022 520.485C171.978 520.591 171.955 520.705 171.955 520.82V525.232H158.835V520.82C158.835 520.705 158.812 520.591 158.768 520.485C158.724 520.379 158.66 520.283 158.578 520.201C158.497 520.12 158.401 520.056 158.295 520.012C158.188 519.968 158.075 519.945 157.96 519.945H136.967C136.852 519.945 136.738 519.968 136.632 520.012C136.526 520.056 136.43 520.12 136.348 520.201C136.267 520.283 136.203 520.379 136.159 520.485C136.115 520.591 136.092 520.705 136.092 520.82V525.232H122.972V520.82C122.972 520.705 122.949 520.591 122.905 520.485C122.861 520.379 122.797 520.283 122.715 520.201C122.634 520.12 122.538 520.056 122.432 520.012C122.326 519.968 122.212 519.945 122.097 519.945H101.104C100.989 519.945 100.875 519.968 100.769 520.012C100.663 520.056 100.567 520.12 100.486 520.201C100.404 520.283 100.34 520.379 100.296 520.485C100.252 520.591 100.229 520.705 100.229 520.82V525.232H59.9929C54.4252 525.232 49.0856 527.443 45.1487 531.38C41.2118 535.317 39 540.657 39 546.224V555.717C39 561.285 41.2118 566.624 45.1487 570.561C49.0856 574.498 54.4253 576.71 59.9929 576.71H758.007C763.575 576.71 768.914 574.498 772.851 570.561C776.788 566.624 779 561.285 779 555.717V546.224C779 540.657 776.788 535.317 772.851 531.38C768.914 527.443 763.575 525.232 758.007 525.232Z" fill="#3F3D56"/>
<path d="M202.171 482.543C187.14 482.543 172.446 478.086 159.948 469.735C147.45 461.384 137.709 449.514 131.957 435.627C126.204 421.74 124.699 406.459 127.632 391.716C130.564 376.974 137.803 363.432 148.431 352.803C159.06 342.174 172.602 334.936 187.345 332.003C202.087 329.071 217.368 330.576 231.255 336.328C245.143 342.08 257.012 351.822 265.363 364.32C273.714 376.818 278.171 391.512 278.171 406.543C278.149 426.692 270.134 446.01 255.886 460.258C241.639 474.506 222.321 482.52 202.171 482.543ZM202.171 332.543C187.536 332.543 173.228 336.883 161.059 345.014C148.89 353.145 139.405 364.703 133.804 378.224C128.203 391.746 126.738 406.625 129.593 420.98C132.449 435.334 139.496 448.52 149.846 458.869C160.195 469.218 173.38 476.266 187.735 479.121C202.089 481.976 216.968 480.511 230.49 474.91C244.012 469.309 255.569 459.824 263.7 447.655C271.831 435.486 276.171 421.179 276.171 406.543C276.149 386.924 268.346 368.114 254.473 354.242C240.6 340.369 221.791 332.565 202.171 332.543V332.543Z" fill="#3F3D56"/>
<path d="M880.171 160.543H625.171V162.543H880.171V160.543Z" fill="#3F3D56"/>
<path d="M1178.17 688.543H445.171V690.543H1178.17V688.543Z" fill="#3F3D56"/>
<path d="M486.671 780.543H231.672V782.543H486.671V780.543Z" fill="#3F3D56"/>
<path d="M538 678H510V706H538V678Z" fill="#9FA8DA"/>
<path d="M555 690H521V656H555V690ZM522.478 688.522H553.522V657.478H522.478V688.522Z" fill="#3F3D56"/>
<path d="M863 150H835V178H863V150Z" fill="#9FA8DA"/>
<path d="M880 162H846V128H880V162ZM847.478 160.522H878.522V129.478H847.478V160.522Z" fill="#3F3D56"/>
<path d="M1145 678H1117V706H1145V678Z" fill="#9FA8DA"/>
<path d="M1162 690H1128V656H1162V690ZM1129.48 688.522H1160.52V657.478H1129.48V688.522Z" fill="#3F3D56"/>
<path d="M1096.17 359.958H1093.79V294.797C1093.79 289.844 1092.82 284.94 1090.92 280.364C1089.03 275.789 1086.25 271.631 1082.75 268.129C1079.24 264.627 1075.09 261.849 1070.51 259.954C1065.94 258.058 1061.03 257.083 1056.08 257.083H918.025C913.073 257.083 908.169 258.058 903.593 259.954C899.017 261.849 894.86 264.627 891.358 268.129C887.856 271.631 885.078 275.789 883.182 280.364C881.287 284.94 880.312 289.844 880.312 294.797V652.278C880.312 657.231 881.287 662.135 883.182 666.711C885.078 671.286 887.856 675.444 891.358 678.946C894.86 682.448 899.017 685.226 903.593 687.121C908.169 689.017 913.073 689.992 918.025 689.992H1056.08C1061.03 689.992 1065.94 689.017 1070.51 687.121C1075.09 685.226 1079.24 682.448 1082.75 678.946C1086.25 675.444 1089.03 671.286 1090.92 666.711C1092.82 662.135 1093.79 657.231 1093.79 652.278V406.341H1096.17V359.958Z" fill="#3F3D56"/>
<path d="M1085.76 297.013V653.974C1085.76 661.443 1082.8 668.608 1077.52 673.891C1072.23 679.174 1065.07 682.142 1057.6 682.143H918.881C911.412 682.142 904.248 679.174 898.967 673.891C893.686 668.608 890.72 661.443 890.721 653.974V297.013C890.722 289.545 893.689 282.383 898.97 277.102C904.251 271.821 911.413 268.854 918.881 268.854H935.711C934.883 270.885 934.567 273.089 934.792 275.272C935.016 277.454 935.773 279.548 936.997 281.369C938.221 283.19 939.874 284.681 941.811 285.713C943.747 286.744 945.907 287.284 948.101 287.284H1027.19C1029.39 287.284 1031.55 286.744 1033.48 285.713C1035.42 284.681 1037.07 283.19 1038.3 281.369C1039.52 279.548 1040.28 277.454 1040.5 275.272C1040.73 273.089 1040.41 270.885 1039.58 268.854H1057.6C1065.07 268.854 1072.23 271.821 1077.51 277.102C1082.79 282.383 1085.76 289.545 1085.76 297.013V297.013Z" fill="#9FA8DA"/>
<path d="M1008.9 504.218H967.58V516.464H1008.9V504.218Z" fill="#3F3D56"/>
<path d="M1058.86 408.875H917.621V414.123H1058.86V408.875Z" fill="#3F3D56"/>
<path d="M1058.86 425.494H917.621V430.742H1058.86V425.494Z" fill="#3F3D56"/>
<path d="M1058.86 442.113H917.621V447.362H1058.86V442.113Z" fill="#3F3D56"/>
<path d="M1058.86 458.733H917.621V463.982H1058.86V458.733Z" fill="#3F3D56"/>
<path d="M1058.86 475.353H917.621V480.601H1058.86V475.353Z" fill="#3F3D56"/>
<path d="M993.175 339.179H968.684V363.67H993.175V339.179Z" fill="#F2F2F2"/>
<path d="M978.059 345.304V375.044H1007.8V345.304H978.059ZM1006.51 373.754H979.349V346.594H1006.51V373.754Z" fill="#3F3D56"/>
<path opacity="0.1" d="M1085.76 615.854V653.974C1085.76 661.443 1082.8 668.608 1077.52 673.891C1072.23 679.174 1065.07 682.142 1057.6 682.144H918.881C911.412 682.142 904.248 679.174 898.967 673.891C893.686 668.608 890.72 661.443 890.721 653.974V461.764L1007.59 554.094L1009.59 555.674L1031.33 572.844L1033.36 574.454L1085.76 615.854Z" fill="black"/>
<path d="M976.241 670.575C1000.47 670.575 1020.11 650.934 1020.11 626.707C1020.11 602.479 1000.47 582.839 976.241 582.839C952.014 582.839 932.374 602.479 932.374 626.707C932.374 650.934 952.014 670.575 976.241 670.575Z" fill="#F2F2F2"/>
<path d="M359.171 782.543C341.964 782.543 325.144 777.441 310.837 767.881C296.53 758.321 285.379 744.734 278.794 728.836C272.209 712.939 270.486 695.446 273.843 678.57C277.2 661.694 285.486 646.192 297.653 634.025C309.82 621.858 325.322 613.572 342.198 610.215C359.075 606.858 376.568 608.581 392.465 615.165C408.362 621.75 421.95 632.901 431.509 647.208C441.069 661.515 446.171 678.336 446.171 695.543C446.145 718.609 436.971 740.722 420.661 757.033C404.351 773.343 382.237 782.517 359.171 782.543ZM359.171 610.543C342.36 610.543 325.926 615.528 311.948 624.868C297.97 634.208 287.075 647.483 280.642 663.015C274.208 678.547 272.525 695.637 275.805 712.126C279.084 728.614 287.18 743.76 299.067 755.647C310.955 767.535 326.1 775.63 342.589 778.91C359.077 782.19 376.168 780.506 391.699 774.073C407.231 767.639 420.506 756.745 429.846 742.767C439.186 728.788 444.171 712.354 444.171 695.543C444.146 673.007 435.182 651.402 419.247 635.467C403.312 619.532 381.707 610.568 359.171 610.543V610.543Z" fill="#3F3D56"/>
<path d="M989.171 660.543C978.293 660.543 967.66 657.317 958.615 651.274C949.57 645.23 942.521 636.641 938.358 626.591C934.195 616.541 933.106 605.482 935.228 594.813C937.35 584.144 942.589 574.344 950.281 566.652C957.972 558.96 967.772 553.722 978.441 551.6C989.11 549.478 1000.17 550.567 1010.22 554.73C1020.27 558.892 1028.86 565.942 1034.9 574.987C1040.95 584.031 1044.17 594.665 1044.17 605.543C1044.15 620.125 1038.36 634.105 1028.04 644.416C1017.73 654.727 1003.75 660.527 989.171 660.543V660.543ZM989.171 552.543C978.689 552.543 968.442 555.651 959.726 561.475C951.01 567.299 944.217 575.576 940.206 585.261C936.194 594.945 935.145 605.602 937.19 615.883C939.235 626.164 944.283 635.607 951.695 643.02C959.107 650.432 968.551 655.48 978.832 657.525C989.113 659.57 999.769 658.52 1009.45 654.509C1019.14 650.497 1027.42 643.704 1033.24 634.988C1039.06 626.272 1042.17 616.025 1042.17 605.543C1042.16 591.491 1036.57 578.02 1026.63 568.084C1016.69 558.148 1003.22 552.559 989.171 552.543Z" fill="#3F3D56"/>
<path opacity="0.1" d="M700.364 33.5494C749.928 14.2552 802.291 -1.85199 855.746 0.172175C934.342 3.13306 1009.72 48.4077 1046.73 114.872C1078.09 171.182 1081.96 237.183 1095.46 299.674C1112.12 376.678 1143.99 449.829 1178.04 521.385C1196.32 559.823 1215.61 599.09 1218.6 641.231C1222.78 699.717 1193.58 758.008 1147.77 796.92C1101.96 835.831 1041.15 856.364 980.106 860.843C947.622 863.222 913.676 861.015 884.812 846.533C854.295 831.223 832.032 803.541 801.392 788.446C772.989 774.449 739.763 772.479 707.875 774.309C666.111 776.71 624.958 785.086 585.786 799.159C541.214 815.191 499.769 838.394 455.298 854.652C410.828 870.91 361.14 879.965 315.68 866.409C273.02 853.672 239.22 822.739 208.861 791.407C158.906 739.969 113.345 684.773 72.616 626.351C45.1691 586.988 19.6225 545.449 7.47889 499.561C-15.7177 411.832 16.2156 312.853 87.0423 253C145.692 203.332 224.445 181.798 301.535 168.684C371.833 156.765 453.117 156.022 517.827 124.949C579.534 95.3189 635.687 58.7439 700.364 33.5494Z" fill="#9FA8DA"/>
</svg>
