<svg xmlns="http://www.w3.org/2000/svg" width="61" height="61" viewBox="0 0 61 61"><g><g><path fill="#ff8195" d="M0 61h61V0H0z"/></g><g><path fill="#b2e9c6" d="M-3.98 64.973h64.978V-18.57H-3.98z"/></g><g><path fill="#7de0ff" d="M-3.98-18.57v76.209l60.757 4.682 4.221-49.666V-18.57z"/></g><g><path fill="#6bc8eb" d="M10.136-18.57L-3.98 36.027V64.33l3.834.642h58.764l2.38-9.027v-73.994l-5.528-.522z"/></g><g><path fill="#59b1d6" d="M29.577-18.57L-3.98 57.361v7.612h64.978v-82.035L53.51-18.57z"/></g><g><path fill="#4799c2" d="M48.97-18.57l-50.3 83.543h62.326V-18.57z"/></g><g><path fill="#3681ad" d="M7.96 67.63h53.043V-6.63z"/></g><g><path fill="#246999" d="M17.24 67.627H61V15.91z"/></g><g><path fill="#125284" d="M27.85 67.628h33.152V33.15z"/></g><g><path fill="#003a70" d="M41.11 67.631h19.891V47.74z"/></g><g><path fill="#fff" d="M17 45h8V14h-8z"/></g><g><path fill="#fff" d="M45 14h-8.875C34.902 20.65 30.735 26.279 25 29.5c5.734 3.222 9.902 8.85 11.125 15.5H45c-.865-6.085-4.69-11.978-9.115-15.5 4.426-3.522 8.25-9.415 9.115-15.5"/></g></g></svg>