<svg width="1014" height="861" viewBox="0 0 1014 861" fill="none" xmlns="http://www.w3.org/2000/svg">
<path d="M673.371 774.991H288.537C275.917 774.991 263.814 769.978 254.891 761.055C245.967 752.131 240.954 740.028 240.954 727.408V551.096C240.954 548.536 241.476 546.003 242.487 543.65C243.498 541.298 244.978 539.177 246.836 537.415L450.76 344.113C458.913 336.384 469.72 332.076 480.954 332.076C492.188 332.076 502.995 336.384 511.148 344.113L705.579 528.417C710.436 533.021 714.304 538.566 716.947 544.714C719.591 550.862 720.954 557.485 720.954 564.177V727.408C720.954 733.657 719.723 739.845 717.332 745.618C714.941 751.391 711.436 756.636 707.017 761.055C702.599 765.473 697.353 768.978 691.58 771.369C685.807 773.761 679.62 774.991 673.371 774.991V774.991Z" fill="white" fill-opacity="0.87"/>
<path opacity="0.1" d="M240.954 553.991H716.954V746.259C716.954 753.879 713.927 761.187 708.539 766.576C703.15 771.964 695.842 774.991 688.222 774.991H269.686C262.066 774.991 254.758 771.964 249.37 766.576C243.981 761.187 240.954 753.879 240.954 746.259V553.991V553.991Z" fill="black"/>
<path d="M631.273 402.491H329.635C315.176 402.491 303.454 414.213 303.454 428.672V730.31C303.454 744.77 315.176 756.491 329.635 756.491H631.273C645.732 756.491 657.454 744.77 657.454 730.31V428.672C657.454 414.213 645.732 402.491 631.273 402.491Z" fill="#9FA8DA"/>
<path opacity="0.1" d="M657.454 561.942V756.492H303.454V561.942L480.454 647.492L657.454 561.942Z" fill="black"/>
<path d="M480.454 658.492L253.66 548.875C252.258 548.197 250.706 547.886 249.15 547.972C247.594 548.058 246.086 548.537 244.766 549.365C243.446 550.193 242.358 551.343 241.604 552.706C240.85 554.069 240.454 555.602 240.454 557.16V745.76C240.454 749.533 241.197 753.269 242.641 756.755C244.085 760.241 246.202 763.408 248.87 766.076C251.538 768.745 254.705 770.861 258.191 772.305C261.677 773.749 265.413 774.492 269.186 774.492H691.722C695.495 774.492 699.231 773.749 702.717 772.305C706.203 770.861 709.371 768.745 712.039 766.076C714.707 763.408 716.823 760.241 718.267 756.755C719.711 753.269 720.454 749.533 720.454 745.76V560.391C720.454 558.489 719.971 556.619 719.051 554.956C718.131 553.292 716.803 551.889 715.193 550.879C713.582 549.868 711.741 549.284 709.843 549.179C707.945 549.074 706.051 549.454 704.339 550.281L480.454 658.492Z" fill="white" fill-opacity="0.87"/>
<path d="M432.954 434.991H333.954V448.991H432.954V434.991Z" fill="#F2F2F2"/>
<path d="M619.954 485.991H325.954V493.991H619.954V485.991Z" fill="#F2F2F2"/>
<path d="M619.954 512.991H325.954V520.991H619.954V512.991Z" fill="#F2F2F2"/>
<path d="M619.954 539.991H325.954V547.991H619.954V539.991Z" fill="#F2F2F2"/>
<path opacity="0.1" d="M280.165 295.26C310.955 267.83 359.275 262.26 403.255 264.42C541.415 271.28 666.125 337.98 773.995 413.42C812.995 440.73 851.495 470.16 876.845 507.77C928.445 584.33 913.145 690.4 841.385 753.47C816.975 774.93 787.385 791.38 756.995 805.97C702.995 831.9 644.685 852.71 583.375 858.64C539.655 862.86 495.375 859.43 451.925 853.53C330.475 837.07 211.265 800.65 111.355 738.34C67.5346 711.01 26.2346 677.04 8.16455 632.84C-9.90545 588.64 1.66455 532.61 46.4146 506.44C64.9146 495.61 87.0445 490.73 108.705 486.14C140.595 479.38 172.995 472.72 201.765 458.98C231.495 444.8 266.685 417.36 260.765 385.98C254.485 352.25 249.415 322.66 280.165 295.26Z" fill="#9FA8DA"/>
<g opacity="0.5">
<path opacity="0.5" d="M541.978 149.41C567.278 149.41 578.978 135.83 578.978 117.63C578.978 85.8495 553.368 63.0195 521.588 63.0195C506.418 63.2193 491.937 69.3857 481.28 80.1839C470.623 90.9821 464.648 105.543 464.648 120.715C464.648 135.886 470.623 150.447 481.28 161.245C491.937 172.043 506.418 178.21 521.588 178.41C533.318 178.308 544.728 174.573 554.248 167.72C554.72 167.385 555.12 166.959 555.425 166.468C555.731 165.977 555.936 165.43 556.028 164.86C556.122 164.377 556.089 163.879 555.933 163.412C555.777 162.946 555.503 162.529 555.138 162.2C554.759 161.877 554.317 161.635 553.841 161.491C553.364 161.347 552.863 161.302 552.368 161.36C551.873 161.418 551.396 161.578 550.966 161.829C550.536 162.08 550.162 162.417 549.868 162.82C547.768 165.58 541.498 170.25 522.948 170.67C494.878 171.31 471.388 148.96 471.298 120.88C471.208 93.0295 494.078 71.0395 521.588 70.7295C549.098 70.4195 571.258 89.8595 571.258 117.01C571.258 134.29 559.258 142.31 544.728 142.01C540.098 142.32 539.178 140.47 539.788 134.01C540.298 128.69 545.378 106.51 547.178 98.7495C547.334 98.106 547.34 97.4349 547.193 96.789C547.047 96.1431 546.753 95.5398 546.335 95.0264C545.916 94.5131 545.385 94.1036 544.781 93.83C544.178 93.5564 543.52 93.4262 542.858 93.4495H542.548C541.594 93.5642 540.707 93.9964 540.028 94.6766C539.35 95.3568 538.92 96.2454 538.808 97.1995C538.649 98.4468 538.562 99.7022 538.548 100.96C535.768 95.4095 529.288 91.0895 521.548 90.7795C505.198 91.0895 491.008 105.9 490.388 127.5C490.388 142 498.098 150.33 511.388 150.33C520.648 150.33 527.388 144.78 531.138 139.53C531.158 139.54 530.848 148.79 541.978 149.41ZM512.668 142.93C504.338 142.93 499.398 136.76 499.398 126.93C499.398 109.93 510.818 99.1595 521.608 99.1595C531.168 99.1595 534.878 105.64 535.188 114.28C535.168 128.15 526.218 142.93 512.648 142.93H512.668Z" fill="url(#paint0_linear)"/>
</g>
<path d="M541.048 148.15C565.228 148.15 576.428 135.15 576.428 117.78C576.428 87.4098 551.958 65.5898 521.588 65.5898C506.964 65.5898 492.939 71.3992 482.598 81.74C472.257 92.0807 466.448 106.106 466.448 120.73C466.448 135.354 472.257 149.379 482.598 159.72C492.939 170.06 506.964 175.87 521.588 175.87C532.797 175.774 543.7 172.207 552.798 165.66C553.25 165.341 553.634 164.936 553.928 164.467C554.222 163.998 554.419 163.476 554.508 162.93C554.598 162.469 554.566 161.993 554.417 161.548C554.268 161.103 554.007 160.704 553.658 160.39C553.297 160.087 552.877 159.861 552.425 159.727C551.974 159.592 551.499 159.551 551.031 159.606C550.562 159.661 550.111 159.812 549.703 160.048C549.294 160.284 548.939 160.601 548.658 160.98C546.658 163.61 540.658 168.08 522.928 168.48C496.098 169.09 473.658 147.73 473.568 120.89C473.478 94.2798 495.338 73.2598 521.628 72.9698C547.918 72.6798 569.098 91.2498 569.098 117.2C569.098 133.71 557.598 141.38 543.738 141.08C539.318 141.37 538.428 139.61 539.018 133.41C539.498 128.32 544.358 107.13 546.088 99.7198C546.237 99.105 546.241 98.4641 546.1 97.8474C545.96 97.2307 545.679 96.6548 545.279 96.1648C544.879 95.6748 544.371 95.2839 543.795 95.0229C543.219 94.7618 542.59 94.6375 541.958 94.6599H541.658C540.746 94.7705 539.898 95.1848 539.251 95.8361C538.603 96.4873 538.194 97.3375 538.088 98.2498C537.935 99.444 537.852 100.646 537.838 101.85C535.188 96.5399 528.988 92.4098 521.618 92.1198C505.988 92.4098 492.428 106.57 491.838 127.21C491.838 141.07 499.208 149.03 511.888 149.03C520.738 149.03 527.218 143.72 530.758 138.71C530.728 138.7 530.438 147.55 541.048 148.15ZM513.048 141.96C505.048 141.96 500.368 136.06 500.368 126.63C500.368 110.41 511.278 100.09 521.598 100.09C530.738 100.09 534.278 106.28 534.598 114.54C534.568 127.79 525.978 141.95 513.038 141.95L513.048 141.96Z" fill="#9FA8DA"/>
<g opacity="0.5">
<path opacity="0.5" d="M643.238 50.73C658.098 50.73 664.978 42.73 664.978 32.07C664.978 13.41 649.978 0 631.278 0C622.292 0 613.675 3.56949 607.321 9.92322C600.967 16.277 597.398 24.8945 597.398 33.88C597.398 42.8655 600.967 51.483 607.321 57.8368C613.675 64.1905 622.292 67.76 631.278 67.76C638.167 67.6998 644.868 65.5058 650.458 61.48C651 61.0743 651.36 60.4702 651.458 59.8C651.513 59.5172 651.494 59.2249 651.403 58.9516C651.312 58.6782 651.152 58.4331 650.938 58.24C650.715 58.0499 650.456 57.9077 650.175 57.8224C649.895 57.7371 649.6 57.7106 649.31 57.7444C649.019 57.7781 648.738 57.8716 648.485 58.0188C648.231 58.166 648.011 58.3639 647.838 58.6C646.608 60.22 642.918 62.96 632.028 63.21C628.108 63.3151 624.206 62.6385 620.55 61.2199C616.894 59.8013 613.557 57.6689 610.734 54.9472C607.911 52.2254 605.658 48.9688 604.107 45.3673C602.555 41.7657 601.736 37.8913 601.698 33.97C601.648 17.62 615.078 4.69999 631.228 4.51999C647.378 4.33999 660.398 15.75 660.398 31.7C660.398 41.85 653.328 46.56 644.818 46.38C642.098 46.56 641.558 45.47 641.918 41.67C642.218 38.55 645.198 25.52 646.258 20.97C646.349 20.592 646.352 20.1979 646.266 19.8188C646.179 19.4396 646.006 19.0855 645.76 18.7843C645.514 18.4831 645.202 18.2429 644.847 18.0826C644.493 17.9222 644.107 17.846 643.718 17.86H643.538C642.979 17.928 642.459 18.1818 642.062 18.5808C641.665 18.9798 641.413 19.5008 641.348 20.06C641.255 20.7932 641.205 21.531 641.198 22.27C640.206 20.4787 638.759 18.9808 637.004 17.9273C635.248 16.8739 633.245 16.3022 631.198 16.27C621.598 16.45 613.258 25.15 612.898 37.83C612.898 46.35 617.428 51.24 625.218 51.24C627.518 51.1889 629.772 50.5863 631.79 49.4831C633.809 48.3798 635.533 46.8081 636.818 44.9C636.818 44.9 636.708 50.37 643.238 50.73ZM625.978 46.93C621.088 46.93 618.188 43.31 618.188 37.51C618.188 27.51 624.888 21.2 631.188 21.2C636.808 21.2 638.978 25 639.188 30.08C639.248 38.23 633.978 46.93 625.978 46.93Z" fill="url(#paint1_linear)"/>
</g>
<path d="M642.628 49.8797C656.728 49.8797 663.268 42.3097 663.268 32.1597C663.268 14.4397 648.988 1.71973 631.268 1.71973C622.737 1.71973 614.556 5.10852 608.524 11.1406C602.492 17.1727 599.103 25.354 599.103 33.8847C599.103 42.4154 602.492 50.5967 608.524 56.6288C614.556 62.6609 622.737 66.0497 631.268 66.0497C637.813 65.9819 644.175 63.8856 649.478 60.0497C649.742 59.8643 649.966 59.6282 650.138 59.3553C650.31 59.0823 650.425 58.7778 650.478 58.4597C650.53 58.1917 650.513 57.9148 650.427 57.6555C650.341 57.3963 650.19 57.1636 649.988 56.9797C649.777 56.797 649.531 56.6602 649.265 56.5783C648.998 56.4964 648.717 56.4712 648.441 56.5041C648.164 56.5371 647.897 56.6275 647.657 56.7697C647.417 56.9119 647.21 57.1026 647.048 57.3297C645.878 58.8697 642.378 61.4697 632.048 61.7097C628.325 61.8149 624.619 61.1764 621.146 59.8315C617.673 58.4865 614.503 56.4623 611.822 53.8772C609.141 51.2921 607.003 48.1981 605.532 44.7763C604.062 41.3546 603.288 37.6739 603.258 33.9497C603.208 18.4297 615.958 6.16972 631.258 5.94972C646.558 5.72972 658.978 16.6797 658.978 31.8197C658.978 41.4497 652.268 45.9197 644.188 45.7497C641.608 45.9197 641.088 44.8897 641.438 41.2797C641.718 38.2797 644.558 25.9497 645.558 21.6297C645.654 21.2678 645.663 20.8883 645.586 20.522C645.508 20.1557 645.345 19.8128 645.111 19.5208C644.876 19.2289 644.577 18.9962 644.236 18.8414C643.895 18.6866 643.522 18.6141 643.148 18.6297H642.978C642.447 18.6936 641.953 18.9346 641.575 19.3138C641.198 19.693 640.959 20.1883 640.898 20.7197C640.807 21.4162 640.757 22.1174 640.748 22.8197C639.809 21.1241 638.439 19.7067 636.776 18.711C635.113 17.7153 633.216 17.1767 631.278 17.1497C622.158 17.3197 614.278 25.5797 613.908 37.6197C613.908 45.6997 618.208 50.3497 625.608 50.3497C627.788 50.3015 629.924 49.7315 631.838 48.6876C633.752 47.6436 635.387 46.1561 636.608 44.3497C636.608 44.3497 636.438 49.5297 642.628 49.8797ZM626.288 46.2697C621.648 46.2697 618.888 42.8297 618.888 37.3297C618.888 27.8697 625.248 21.8497 631.268 21.8497C636.598 21.8497 638.668 25.4597 638.838 30.2797C638.848 38.0097 633.858 46.2697 626.288 46.2697Z" fill="#9FA8DA"/>
<g opacity="0.5">
<path opacity="0.5" d="M749.608 122.51C764.888 122.51 771.978 114.31 771.978 103.31C771.978 84.1096 756.508 70.3096 737.308 70.3096C728.166 70.4644 719.451 74.2047 713.041 80.7245C706.631 87.2442 703.039 96.0214 703.039 105.165C703.039 114.308 706.631 123.085 713.041 129.605C719.451 136.124 728.166 139.865 737.308 140.02C744.394 139.957 751.287 137.7 757.038 133.56C757.324 133.358 757.567 133.101 757.753 132.804C757.938 132.506 758.062 132.175 758.118 131.83C758.175 131.537 758.155 131.235 758.061 130.953C757.966 130.671 757.8 130.418 757.578 130.22C757.349 130.026 757.082 129.881 756.794 129.795C756.506 129.709 756.204 129.683 755.906 129.718C755.607 129.754 755.32 129.851 755.06 130.002C754.801 130.154 754.576 130.357 754.398 130.6C753.128 132.26 749.338 135.09 738.128 135.34C734.095 135.449 730.08 134.753 726.318 133.294C722.556 131.836 719.123 129.642 716.217 126.842C713.312 124.042 710.994 120.692 709.397 116.986C707.801 113.281 706.958 109.294 706.918 105.26C706.858 88.4396 720.678 75.1496 737.298 74.9596C753.918 74.7696 767.298 86.5196 767.298 102.96C767.298 113.4 760.028 118.24 751.298 118.06C748.498 118.25 747.938 117.13 748.298 113.21C748.608 110 751.678 96.5996 752.768 91.9096C752.863 91.5209 752.866 91.1155 752.777 90.7254C752.689 90.3352 752.511 89.9709 752.258 89.6609C752.006 89.3509 751.684 89.1036 751.32 88.9386C750.956 88.7735 750.558 88.6952 750.158 88.7096H749.968C749.391 88.7779 748.853 89.0393 748.443 89.4514C748.033 89.8634 747.774 90.4019 747.708 90.9796C747.611 91.7325 747.558 92.4905 747.548 93.2496C746.526 91.4181 745.042 89.8865 743.243 88.8075C741.445 87.7284 739.395 87.1395 737.298 87.0996C727.418 87.2896 718.848 96.2296 718.468 109.28C718.468 118.04 723.128 123.07 731.148 123.07C733.513 123.017 735.831 122.397 737.907 121.263C739.983 120.128 741.757 118.512 743.078 116.55C743.078 116.55 742.898 122.15 749.608 122.51ZM731.898 118.6C726.898 118.6 723.898 114.87 723.898 108.91C723.898 98.6596 730.798 92.1296 737.318 92.1296C743.098 92.1296 745.318 96.0396 745.518 101.26C745.508 109.65 740.108 118.6 731.898 118.6Z" fill="url(#paint2_linear)"/>
</g>
<path d="M748.658 121.15C762.758 121.15 769.298 113.58 769.298 103.43C769.298 85.7102 755.018 72.9902 737.298 72.9902C728.767 72.9902 720.586 76.3791 714.554 82.4112C708.522 88.4433 705.133 96.6246 705.133 105.155C705.133 113.686 708.522 121.867 714.554 127.899C720.586 133.931 728.767 137.32 737.298 137.32C743.843 137.252 750.205 135.156 755.508 131.32C755.772 131.135 755.996 130.899 756.168 130.626C756.34 130.353 756.455 130.048 756.508 129.73C756.56 129.462 756.543 129.185 756.457 128.926C756.371 128.667 756.22 128.434 756.018 128.25C755.807 128.067 755.561 127.931 755.295 127.849C755.028 127.767 754.747 127.742 754.471 127.775C754.194 127.808 753.927 127.898 753.687 128.04C753.447 128.182 753.24 128.373 753.078 128.6C751.908 130.14 748.408 132.74 738.078 132.98C734.355 133.085 730.649 132.447 727.176 131.102C723.703 129.757 720.533 127.733 717.852 125.148C715.171 122.563 713.033 119.469 711.562 116.047C710.092 112.625 709.318 108.944 709.288 105.22C709.238 89.7002 721.988 77.4402 737.288 77.2202C752.588 77.0002 764.978 87.9802 764.978 103.15C764.978 112.78 758.268 117.25 750.188 117.08C747.608 117.25 747.088 116.22 747.438 112.61C747.718 109.61 750.558 97.2802 751.558 92.9602C751.654 92.5983 751.663 92.2189 751.586 91.8525C751.508 91.4862 751.345 91.1433 751.111 90.8513C750.876 90.5594 750.577 90.3267 750.236 90.1719C749.895 90.0171 749.522 89.9446 749.148 89.9602H748.978C748.447 90.0241 747.953 90.2651 747.575 90.6443C747.198 91.0235 746.959 91.5188 746.898 92.0502C746.807 92.7467 746.757 93.4479 746.748 94.1502C745.811 92.4542 744.443 91.0357 742.782 90.0383C741.121 89.0409 739.225 88.5 737.288 88.4702C728.168 88.6402 720.288 96.9002 719.918 108.94C719.918 117.02 724.218 121.67 731.618 121.67C733.798 121.622 735.934 121.052 737.848 120.008C739.762 118.964 741.397 117.477 742.618 115.67C742.618 115.67 742.468 120.83 748.658 121.15ZM732.318 117.54C727.678 117.54 724.918 114.1 724.918 108.6C724.918 99.1403 731.278 93.1202 737.298 93.1202C742.628 93.1202 744.698 96.7302 744.868 101.55C744.878 109.31 739.888 117.56 732.318 117.56V117.54Z" fill="#9FA8DA"/>
<g opacity="0.5">
<path opacity="0.5" d="M653.978 225.91C668.548 225.91 675.298 218.09 675.298 207.61C675.298 189.31 660.548 176.16 642.248 176.16C633.435 176.16 624.983 179.661 618.751 185.893C612.519 192.125 609.018 200.577 609.018 209.39C609.018 218.203 612.519 226.655 618.751 232.887C624.983 239.119 633.435 242.62 642.248 242.62C649.004 242.561 655.576 240.409 661.058 236.46C661.325 236.265 661.551 236.018 661.723 235.735C661.895 235.452 662.008 235.138 662.058 234.81C662.112 234.533 662.094 234.246 662.004 233.978C661.915 233.71 661.758 233.47 661.548 233.28C661.33 233.101 661.078 232.967 660.807 232.888C660.536 232.809 660.252 232.785 659.971 232.819C659.691 232.853 659.42 232.943 659.176 233.084C658.931 233.225 658.718 233.414 658.548 233.64C657.338 235.23 653.728 237.92 643.038 238.16C639.194 238.26 635.368 237.594 631.784 236.201C628.199 234.809 624.928 232.717 622.159 230.048C619.391 227.379 617.181 224.186 615.658 220.655C614.135 217.124 613.329 213.325 613.288 209.48C613.238 193.48 626.408 180.77 642.288 180.6C658.168 180.43 670.898 191.6 670.898 207.26C670.898 217.26 663.968 221.83 655.618 221.65C652.948 221.83 652.418 220.76 652.778 217.03C652.978 213.96 655.978 201.15 656.978 196.72C657.068 196.349 657.071 195.963 656.986 195.591C656.902 195.219 656.732 194.872 656.491 194.576C656.25 194.281 655.943 194.045 655.596 193.888C655.248 193.731 654.869 193.656 654.488 193.67H654.308C653.759 193.736 653.248 193.985 652.858 194.377C652.468 194.769 652.222 195.281 652.158 195.83C652.066 196.55 652.016 197.275 652.008 198C651.036 196.253 649.621 194.792 647.907 193.764C646.192 192.735 644.237 192.175 642.238 192.14C632.818 192.32 624.648 200.85 624.288 213.29C624.288 221.64 628.728 226.44 636.368 226.44C638.623 226.389 640.832 225.797 642.811 224.715C644.789 223.633 646.479 222.091 647.738 220.22C647.738 220.22 647.578 225.55 653.978 225.91ZM637.088 222.15C632.288 222.15 629.448 218.6 629.448 212.91C629.448 203.14 636.028 196.91 642.238 196.91C647.748 196.91 649.878 200.64 650.058 205.62C650.068 213.65 644.908 222.15 637.088 222.15Z" fill="url(#paint3_linear)"/>
</g>
<path d="M653.598 225.38C667.698 225.38 674.238 217.81 674.238 207.66C674.238 189.94 659.958 177.22 642.238 177.22C633.707 177.22 625.526 180.609 619.494 186.641C613.462 192.673 610.073 200.854 610.073 209.385C610.073 217.915 613.462 226.097 619.494 232.129C625.526 238.161 633.707 241.55 642.238 241.55C648.783 241.482 655.145 239.386 660.448 235.55C660.712 235.364 660.936 235.128 661.108 234.855C661.28 234.582 661.395 234.278 661.448 233.96C661.5 233.692 661.483 233.415 661.397 233.156C661.311 232.896 661.16 232.664 660.958 232.48C660.747 232.297 660.501 232.16 660.235 232.078C659.968 231.996 659.687 231.971 659.411 232.004C659.134 232.037 658.867 232.128 658.627 232.27C658.387 232.412 658.18 232.603 658.018 232.83C656.848 234.37 653.348 236.97 643.018 237.21C639.295 237.315 635.589 236.676 632.116 235.331C628.643 233.987 625.473 231.962 622.792 229.377C620.111 226.792 617.973 223.698 616.502 220.276C615.032 216.855 614.258 213.174 614.228 209.45C614.178 193.93 626.928 181.67 642.228 181.45C657.528 181.23 669.978 192.15 669.978 207.32C669.978 216.95 663.268 221.42 655.188 221.25C652.608 221.42 652.088 220.39 652.438 216.78C652.718 213.78 655.558 201.45 656.558 197.13C656.654 196.768 656.663 196.388 656.586 196.022C656.508 195.656 656.345 195.313 656.111 195.021C655.876 194.729 655.577 194.496 655.236 194.341C654.895 194.187 654.522 194.114 654.148 194.13H653.978C653.447 194.194 652.953 194.435 652.575 194.814C652.198 195.193 651.959 195.688 651.898 196.22C651.807 196.916 651.757 197.617 651.748 198.32C650.811 196.624 649.443 195.205 647.782 194.208C646.121 193.21 644.225 192.669 642.288 192.64C633.168 192.81 625.288 201.07 624.918 213.11C624.918 221.19 629.218 225.84 636.618 225.84C638.798 225.791 640.934 225.221 642.848 224.178C644.762 223.134 646.397 221.646 647.618 219.84C647.618 219.84 647.408 225.03 653.598 225.38ZM637.258 221.77C632.618 221.77 629.858 218.33 629.858 212.83C629.858 203.37 636.218 197.35 642.238 197.35C647.568 197.35 649.638 200.96 649.808 205.78C649.818 213.51 644.828 221.76 637.258 221.76V221.77Z" fill="#9FA8DA"/>
<g opacity="0.5">
<path opacity="0.5" d="M565.788 253.09C580.948 253.09 587.978 244.95 587.978 234.09C587.978 215.09 572.628 201.36 553.578 201.36C544.407 201.36 535.611 205.004 529.126 211.489C522.641 217.974 518.998 226.769 518.998 235.94C518.998 245.112 522.641 253.907 529.126 260.392C535.611 266.877 544.407 270.52 553.578 270.52C560.607 270.458 567.444 268.219 573.148 264.11C573.431 263.911 573.671 263.656 573.855 263.363C574.039 263.069 574.162 262.742 574.218 262.4C574.274 262.112 574.254 261.814 574.161 261.536C574.068 261.258 573.905 261.008 573.688 260.81C573.461 260.617 573.196 260.472 572.91 260.385C572.625 260.298 572.324 260.271 572.027 260.306C571.731 260.341 571.444 260.436 571.186 260.587C570.928 260.737 570.704 260.939 570.528 261.18C569.268 262.83 565.528 265.63 554.388 265.88C550.384 265.994 546.397 265.307 542.661 263.862C538.924 262.417 535.514 260.242 532.628 257.464C529.741 254.686 527.438 251.361 525.852 247.682C524.265 244.004 523.428 240.046 523.388 236.04C523.338 219.35 537.038 206.17 553.528 205.98C570.018 205.79 583.298 217.45 583.298 233.72C583.298 244.08 576.088 248.88 567.398 248.72C564.628 248.9 564.068 247.8 564.398 243.91C564.698 240.72 567.748 227.43 568.828 222.78C568.923 222.394 568.926 221.992 568.839 221.604C568.752 221.216 568.576 220.854 568.325 220.546C568.074 220.237 567.755 219.992 567.392 219.828C567.03 219.664 566.635 219.586 566.238 219.6H566.048C565.476 219.669 564.944 219.928 564.537 220.336C564.131 220.744 563.874 221.278 563.808 221.85C563.711 222.6 563.658 223.355 563.648 224.11C562.636 222.292 561.163 220.771 559.379 219.701C557.594 218.63 555.559 218.047 553.478 218.01C543.678 218.19 535.168 227.07 534.798 240.01C534.798 248.7 539.418 253.69 547.368 253.69C549.74 253.648 552.067 253.031 554.148 251.892C556.23 250.752 558.004 249.126 559.318 247.15C559.318 247.15 559.128 252.72 565.788 253.09ZM548.218 249.21C543.218 249.21 540.218 245.51 540.218 239.59C540.218 229.42 547.058 222.95 553.528 222.95C559.258 222.95 561.528 226.83 561.668 232.01C561.718 240.33 556.358 249.2 548.218 249.2V249.21Z" fill="url(#paint4_linear)"/>
</g>
<path d="M564.978 251.88C579.078 251.88 585.618 244.31 585.618 234.16C585.618 216.44 571.338 203.72 553.618 203.72C545.087 203.72 536.906 207.109 530.874 213.141C524.842 219.173 521.453 227.354 521.453 235.885C521.453 244.415 524.842 252.597 530.874 258.629C536.906 264.661 545.087 268.05 553.618 268.05C560.163 267.982 566.525 265.886 571.828 262.05C572.092 261.864 572.316 261.628 572.488 261.355C572.66 261.082 572.775 260.778 572.828 260.46C572.88 260.192 572.863 259.915 572.777 259.656C572.691 259.396 572.54 259.164 572.338 258.98C572.128 258.797 571.881 258.66 571.615 258.578C571.348 258.496 571.068 258.471 570.791 258.504C570.514 258.537 570.247 258.628 570.007 258.77C569.767 258.912 569.56 259.103 569.398 259.33C568.228 260.87 564.728 263.47 554.398 263.71C550.675 263.815 546.969 263.176 543.496 261.831C540.023 260.487 536.853 258.462 534.172 255.877C531.491 253.292 529.353 250.198 527.882 246.776C526.412 243.355 525.639 239.674 525.608 235.95C525.558 220.43 538.308 208.17 553.608 207.95C568.908 207.73 581.298 218.61 581.298 233.75C581.298 243.38 574.588 247.85 566.508 247.68C563.928 247.85 563.408 246.82 563.758 243.21C564.038 240.21 566.878 227.88 567.878 223.56C567.974 223.198 567.984 222.818 567.906 222.452C567.828 222.086 567.666 221.743 567.431 221.451C567.197 221.159 566.897 220.926 566.556 220.771C566.215 220.617 565.842 220.544 565.468 220.56H565.298C564.767 220.624 564.273 220.865 563.896 221.244C563.518 221.623 563.279 222.118 563.218 222.65C563.128 223.346 563.078 224.047 563.068 224.75C562.131 223.054 560.763 221.635 559.102 220.638C557.441 219.64 555.546 219.099 553.608 219.07C544.488 219.24 536.608 227.5 536.238 239.54C536.238 247.62 540.538 252.27 547.938 252.27C550.118 252.221 552.254 251.651 554.168 250.608C556.082 249.564 557.718 248.076 558.938 246.27C558.938 246.27 558.738 251.54 564.978 251.88ZM548.638 248.27C543.998 248.27 541.238 244.83 541.238 239.33C541.238 229.87 547.598 223.85 553.618 223.85C558.948 223.85 561.018 227.46 561.188 232.28C561.148 240.02 556.158 248.27 548.598 248.27H548.638Z" fill="#9FA8DA"/>
<g opacity="0.5">
<path opacity="0.5" d="M565.788 360.03C580.948 360.03 587.978 351.89 587.978 341.03C587.978 322.03 572.628 308.3 553.578 308.3C544.407 308.3 535.611 311.943 529.126 318.428C522.641 324.913 518.998 333.709 518.998 342.88C518.998 352.051 522.641 360.847 529.126 367.332C535.611 373.817 544.407 377.46 553.578 377.46C560.607 377.398 567.444 375.158 573.148 371.05C573.431 370.85 573.671 370.596 573.855 370.302C574.039 370.009 574.162 369.682 574.218 369.34C574.274 369.052 574.254 368.754 574.161 368.475C574.068 368.197 573.905 367.947 573.688 367.75C573.461 367.556 573.196 367.411 572.91 367.324C572.625 367.238 572.324 367.211 572.027 367.245C571.731 367.28 571.444 367.376 571.186 367.526C570.928 367.677 570.704 367.879 570.528 368.12C569.268 369.77 565.528 372.57 554.388 372.82C550.384 372.933 546.397 372.247 542.661 370.802C538.924 369.357 535.514 367.182 532.628 364.404C529.741 361.626 527.438 358.3 525.852 354.622C524.265 350.943 523.428 346.986 523.388 342.98C523.338 326.29 537.038 313.11 553.528 312.92C570.018 312.73 583.298 324.39 583.298 340.66C583.298 351.02 576.088 355.82 567.398 355.66C564.628 355.84 564.068 354.74 564.398 350.85C564.698 347.66 567.748 334.37 568.828 329.72C568.923 329.334 568.926 328.931 568.839 328.543C568.752 328.155 568.576 327.793 568.325 327.485C568.074 327.177 567.755 326.931 567.392 326.767C567.03 326.603 566.635 326.525 566.238 326.54H566.048C565.476 326.608 564.944 326.867 564.537 327.276C564.131 327.684 563.874 328.217 563.808 328.79C563.711 329.539 563.658 330.294 563.648 331.05C562.636 329.231 561.163 327.711 559.379 326.64C557.594 325.569 555.559 324.987 553.478 324.95C543.678 325.13 535.168 334.01 534.798 346.95C534.798 355.64 539.418 360.63 547.368 360.63C549.735 360.594 552.058 359.986 554.139 358.857C556.22 357.729 557.997 356.114 559.318 354.15C559.318 354.15 559.128 359.66 565.788 360.03ZM548.218 356.15C543.218 356.15 540.218 352.45 540.218 346.53C540.218 336.36 547.058 329.89 553.528 329.89C559.258 329.89 561.528 333.77 561.668 338.95C561.718 347.27 556.358 356.15 548.218 356.15Z" fill="url(#paint5_linear)"/>
</g>
<path d="M564.978 358.83C579.078 358.83 585.618 351.26 585.618 341.11C585.618 323.39 571.338 310.67 553.618 310.67C545.087 310.67 536.906 314.059 530.874 320.091C524.842 326.123 521.453 334.304 521.453 342.835C521.453 351.366 524.842 359.547 530.874 365.579C536.906 371.611 545.087 375 553.618 375C560.163 374.932 566.525 372.836 571.828 369C572.092 368.814 572.316 368.578 572.488 368.305C572.66 368.032 572.775 367.728 572.828 367.41C572.88 367.142 572.863 366.865 572.777 366.606C572.691 366.346 572.54 366.114 572.338 365.93C572.128 365.747 571.881 365.61 571.615 365.529C571.348 365.447 571.068 365.421 570.791 365.454C570.514 365.487 570.247 365.578 570.007 365.72C569.767 365.862 569.56 366.053 569.398 366.28C568.228 367.82 564.728 370.42 554.398 370.66C550.675 370.765 546.969 370.127 543.496 368.782C540.023 367.437 536.853 365.412 534.172 362.827C531.491 360.242 529.353 357.148 527.882 353.727C526.412 350.305 525.639 346.624 525.608 342.9C525.558 327.38 538.308 315.12 553.608 314.9C568.908 314.68 581.298 325.56 581.298 340.7C581.298 350.33 574.588 354.8 566.508 354.63C563.928 354.8 563.408 353.77 563.758 350.16C564.038 347.16 566.878 334.83 567.878 330.51C567.974 330.148 567.984 329.769 567.906 329.402C567.828 329.036 567.666 328.693 567.431 328.401C567.197 328.109 566.897 327.876 566.556 327.722C566.215 327.567 565.842 327.494 565.468 327.51H565.298C564.767 327.574 564.273 327.815 563.896 328.194C563.518 328.573 563.279 329.068 563.218 329.6C563.128 330.296 563.078 330.998 563.068 331.7C562.112 330.024 560.732 328.628 559.066 327.654C557.4 326.68 555.508 326.161 553.578 326.15C544.458 326.32 536.578 334.58 536.208 346.62C536.208 354.7 540.508 359.35 547.908 359.35C550.088 359.302 552.224 358.732 554.138 357.688C556.052 356.644 557.688 355.156 558.908 353.35C558.908 353.35 558.738 358.48 564.978 358.83ZM548.638 355.22C543.998 355.22 541.238 351.78 541.238 346.28C541.238 336.82 547.598 330.8 553.618 330.8C558.948 330.8 561.018 334.41 561.188 339.23C561.148 346.96 556.158 355.22 548.598 355.22H548.638Z" fill="#9FA8DA"/>
<g opacity="0.5">
<path opacity="0.5" d="M717.618 417.75C732.898 417.75 739.978 409.55 739.978 398.56C739.978 379.37 724.508 365.56 705.318 365.56C696.075 365.56 687.211 369.231 680.675 375.767C674.14 382.303 670.468 391.167 670.468 400.41C670.468 409.652 674.14 418.517 680.675 425.052C687.211 431.588 696.075 435.26 705.318 435.26C712.404 435.198 719.297 432.941 725.048 428.8C725.334 428.598 725.577 428.341 725.763 428.044C725.948 427.746 726.072 427.415 726.128 427.07C726.185 426.777 726.165 426.476 726.071 426.193C725.976 425.911 725.81 425.658 725.588 425.46C725.358 425.266 725.092 425.121 724.804 425.035C724.516 424.949 724.214 424.923 723.915 424.958C723.617 424.994 723.329 425.091 723.07 425.242C722.811 425.394 722.585 425.597 722.408 425.84C721.138 427.5 717.348 430.33 706.148 430.58C702.12 430.683 698.111 429.985 694.355 428.525C690.599 427.064 687.171 424.872 684.27 422.075C681.37 419.277 679.054 415.931 677.459 412.23C675.864 408.53 675.02 404.549 674.978 400.52C674.918 383.7 688.738 370.42 705.358 370.23C721.978 370.04 735.358 381.78 735.358 398.23C735.358 408.67 728.088 413.51 719.358 413.32C716.558 413.51 716.008 412.39 716.358 408.47C716.668 405.26 719.738 391.86 720.828 387.18C720.922 386.791 720.926 386.386 720.837 385.995C720.749 385.605 720.571 385.241 720.318 384.931C720.066 384.621 719.744 384.374 719.38 384.209C719.015 384.044 718.618 383.965 718.218 383.98H718.028C717.451 384.048 716.913 384.309 716.503 384.721C716.093 385.133 715.834 385.672 715.768 386.25C715.671 387.003 715.618 387.76 715.608 388.52C714.586 386.688 713.102 385.157 711.303 384.078C709.505 382.998 707.455 382.41 705.358 382.37C695.478 382.56 686.908 391.5 686.538 404.55C686.538 413.31 691.198 418.34 699.208 418.34C701.573 418.287 703.891 417.667 705.967 416.533C708.043 415.398 709.816 413.782 711.138 411.82C711.138 411.82 710.908 417.38 717.618 417.75ZM699.918 413.84C694.918 413.84 691.918 410.11 691.918 404.15C691.918 393.9 698.818 387.38 705.338 387.38C711.118 387.38 713.338 391.29 713.538 396.51C713.518 404.89 708.108 413.84 699.908 413.84H699.918Z" fill="url(#paint6_linear)"/>
</g>
<path d="M716.668 416.41C730.768 416.41 737.308 408.84 737.308 398.69C737.308 380.97 723.028 368.25 705.308 368.25C696.777 368.25 688.596 371.639 682.564 377.671C676.532 383.703 673.143 391.884 673.143 400.415C673.143 408.946 676.532 417.127 682.564 423.159C688.596 429.191 696.777 432.58 705.308 432.58C711.853 432.512 718.215 430.416 723.518 426.58C723.782 426.395 724.006 426.159 724.178 425.886C724.35 425.613 724.465 425.308 724.518 424.99C724.57 424.722 724.553 424.445 724.467 424.186C724.381 423.927 724.23 423.694 724.028 423.51C723.818 423.327 723.571 423.191 723.305 423.109C723.038 423.027 722.757 423.001 722.481 423.034C722.204 423.067 721.937 423.158 721.697 423.3C721.457 423.442 721.25 423.633 721.088 423.86C719.918 425.4 716.418 428 706.088 428.24C702.365 428.345 698.659 427.707 695.186 426.362C691.713 425.017 688.543 422.993 685.862 420.407C683.181 417.822 681.043 414.728 679.572 411.307C678.102 407.885 677.329 404.204 677.298 400.48C677.248 384.96 689.998 372.7 705.298 372.48C720.598 372.26 732.978 383.22 732.978 398.35C732.978 407.98 726.268 412.45 718.188 412.28C715.608 412.45 715.088 411.42 715.438 407.81C715.718 404.81 718.558 392.48 719.558 388.16C719.654 387.798 719.663 387.419 719.586 387.052C719.508 386.686 719.346 386.343 719.111 386.051C718.877 385.759 718.577 385.526 718.236 385.372C717.895 385.217 717.522 385.144 717.148 385.16H716.978C716.447 385.224 715.953 385.465 715.575 385.844C715.198 386.223 714.959 386.719 714.898 387.25C714.808 387.947 714.757 388.648 714.748 389.35C713.811 387.654 712.443 386.236 710.782 385.238C709.121 384.241 707.225 383.7 705.288 383.67C696.168 383.84 688.288 392.1 687.918 404.14C687.918 412.22 692.218 416.87 699.618 416.87C701.798 416.822 703.934 416.252 705.848 415.208C707.762 414.164 709.398 412.676 710.618 410.87C710.618 410.87 710.478 416.07 716.668 416.41ZM700.328 412.8C695.688 412.8 692.928 409.36 692.928 403.86C692.928 394.4 699.288 388.38 705.308 388.38C710.638 388.38 712.708 391.99 712.878 396.81C712.888 404.55 707.898 412.8 700.328 412.8Z" fill="#9FA8DA"/>
<path opacity="0.5" d="M658.578 315.87C668.648 315.87 673.318 310.46 673.318 303.22C673.318 290.57 663.118 281.47 650.468 281.47C644.56 281.745 638.985 284.286 634.902 288.565C630.818 292.843 628.54 298.53 628.54 304.445C628.54 310.359 630.818 316.046 634.902 320.325C638.985 324.603 644.56 327.144 650.468 327.42C655.137 327.378 659.679 325.889 663.468 323.16C663.656 323.027 663.816 322.857 663.938 322.661C664.06 322.466 664.142 322.247 664.178 322.02C664.216 321.828 664.204 321.629 664.143 321.443C664.082 321.258 663.973 321.091 663.828 320.96C663.677 320.831 663.501 320.735 663.311 320.677C663.12 320.62 662.92 320.602 662.723 320.625C662.526 320.649 662.336 320.713 662.165 320.813C661.993 320.914 661.845 321.049 661.728 321.21C660.898 322.31 658.398 324.21 651.008 324.34C648.395 324.375 645.8 323.896 643.372 322.928C640.944 321.961 638.73 320.525 636.857 318.702C633.075 315.021 630.91 309.988 630.838 304.71C630.766 299.432 632.794 294.342 636.476 290.559C640.157 286.777 645.19 284.611 650.468 284.54C661.398 284.42 670.248 292.16 670.248 302.97C670.248 309.85 665.458 313.04 659.678 312.97C657.838 313.09 657.468 312.36 657.678 309.78C657.878 307.66 659.908 298.83 660.618 295.78C660.68 295.524 660.681 295.257 660.623 295C660.565 294.743 660.448 294.503 660.281 294.298C660.115 294.094 659.903 293.931 659.663 293.822C659.423 293.713 659.161 293.661 658.898 293.67H658.778C658.398 293.714 658.045 293.886 657.774 294.156C657.504 294.426 657.333 294.78 657.288 295.16C657.226 295.657 657.192 296.158 657.188 296.66C656.515 295.451 655.536 294.441 654.35 293.73C653.163 293.02 651.811 292.633 650.428 292.61C643.918 292.73 638.268 298.61 638.018 307.23C638.018 313 641.088 316.32 646.368 316.32C647.927 316.284 649.454 315.875 650.822 315.127C652.189 314.379 653.358 313.313 654.228 312.02C654.228 312.02 654.158 315.62 658.578 315.87ZM646.908 313.29C643.588 313.29 641.628 310.83 641.628 306.9C641.628 300.14 646.178 295.84 650.478 295.84C654.288 295.84 655.758 298.42 655.888 301.84C655.878 307.39 652.318 313.29 646.908 313.29V313.29Z" fill="#9FA8DA"/>
<path opacity="0.5" d="M464.798 354.26C474.868 354.26 479.538 348.85 479.538 341.61C479.538 328.96 469.338 319.86 456.688 319.86C450.78 320.136 445.206 322.677 441.122 326.955C437.039 331.234 434.76 336.921 434.76 342.835C434.76 348.75 437.039 354.437 441.122 358.715C445.206 362.994 450.78 365.535 456.688 365.81C461.358 365.768 465.899 364.28 469.688 361.55C469.877 361.417 470.036 361.248 470.158 361.052C470.28 360.856 470.362 360.638 470.398 360.41C470.437 360.218 470.425 360.02 470.363 359.834C470.302 359.648 470.193 359.482 470.048 359.35C469.897 359.221 469.721 359.125 469.531 359.068C469.341 359.01 469.141 358.993 468.943 359.016C468.746 359.04 468.556 359.104 468.385 359.204C468.213 359.305 468.065 359.44 467.948 359.6C467.118 360.7 464.618 362.6 457.228 362.73C454.615 362.766 452.02 362.286 449.592 361.319C447.164 360.352 444.951 358.915 443.078 357.093C439.295 353.411 437.13 348.378 437.058 343.1C436.987 337.823 439.014 332.732 442.696 328.95C446.377 325.167 451.41 323.002 456.688 322.93C467.618 322.81 476.468 330.55 476.468 341.36C476.468 348.24 471.678 351.43 465.898 351.36C464.058 351.48 463.688 350.75 463.898 348.17C464.098 346.05 466.128 337.22 466.838 334.17C466.9 333.914 466.902 333.647 466.843 333.39C466.785 333.133 466.668 332.893 466.501 332.689C466.335 332.485 466.123 332.322 465.883 332.213C465.643 332.104 465.382 332.051 465.118 332.06H464.998C464.618 332.105 464.265 332.276 463.994 332.547C463.724 332.817 463.553 333.171 463.508 333.55C463.446 334.048 463.413 334.549 463.408 335.05C462.735 333.842 461.756 332.832 460.57 332.121C459.384 331.41 458.031 331.024 456.648 331C450.138 331.12 444.488 337 444.238 345.62C444.238 351.39 447.308 354.71 452.588 354.71C454.147 354.675 455.674 354.266 457.042 353.518C458.41 352.769 459.578 351.704 460.448 350.41C460.448 350.41 460.378 354.01 464.798 354.26ZM453.128 351.68C449.808 351.68 447.848 349.22 447.848 345.29C447.848 338.53 452.398 334.23 456.698 334.23C460.508 334.23 461.978 336.81 462.108 340.23C462.098 345.78 458.538 351.68 453.128 351.68V351.68Z" fill="#9FA8DA"/>
<path opacity="0.5" d="M441.038 183.33C451.108 183.33 455.778 177.92 455.778 170.68C455.778 158.03 445.578 148.93 432.928 148.93C427.02 149.205 421.445 151.746 417.362 156.025C413.278 160.303 411 165.99 411 171.905C411 177.819 413.278 183.506 417.362 187.785C421.445 192.063 427.02 194.604 432.928 194.88C437.597 194.837 442.139 193.349 445.928 190.62C446.116 190.487 446.276 190.317 446.398 190.121C446.52 189.926 446.601 189.707 446.638 189.48C446.676 189.288 446.664 189.089 446.603 188.903C446.542 188.718 446.433 188.551 446.288 188.42C446.137 188.291 445.961 188.195 445.771 188.137C445.58 188.079 445.38 188.062 445.183 188.085C444.986 188.109 444.796 188.173 444.624 188.273C444.453 188.374 444.305 188.509 444.188 188.67C443.358 189.77 440.858 191.67 433.468 191.8C430.855 191.835 428.26 191.356 425.832 190.388C423.404 189.421 421.19 187.985 419.317 186.162C417.444 184.339 415.949 182.165 414.916 179.765C413.883 177.364 413.333 174.783 413.298 172.17C413.262 169.556 413.742 166.962 414.709 164.534C415.677 162.106 417.113 159.892 418.936 158.019C420.758 156.146 422.932 154.651 425.333 153.618C427.734 152.585 430.315 152.035 432.928 152C443.858 151.88 452.708 159.62 452.708 170.43C452.708 177.31 447.918 180.5 442.138 180.43C440.298 180.55 439.928 179.82 440.138 177.24C440.338 175.12 442.368 166.29 443.078 163.24C443.14 162.983 443.141 162.716 443.083 162.46C443.025 162.203 442.908 161.963 442.741 161.758C442.575 161.554 442.363 161.391 442.123 161.282C441.883 161.173 441.621 161.121 441.358 161.13H441.238C440.858 161.174 440.505 161.346 440.234 161.616C439.964 161.886 439.793 162.24 439.748 162.62C439.686 163.117 439.652 163.618 439.648 164.12C438.975 162.911 437.996 161.901 436.81 161.19C435.623 160.479 434.271 160.093 432.888 160.07C426.378 160.19 420.728 166.07 420.478 174.69C420.478 180.46 423.548 183.78 428.828 183.78C430.387 183.744 431.914 183.335 433.282 182.587C434.649 181.839 435.818 180.773 436.688 179.48C436.688 179.48 436.618 183.08 441.038 183.33ZM429.368 180.75C426.048 180.75 424.088 178.29 424.088 174.36C424.088 167.6 428.638 163.3 432.938 163.3C436.748 163.3 438.218 165.88 438.348 169.3C438.338 174.85 434.768 180.75 429.368 180.75Z" fill="#9FA8DA"/>
<path opacity="0.5" d="M824.978 188.81C835.048 188.81 839.718 183.4 839.718 176.16C839.718 163.51 829.518 154.41 816.868 154.41C810.96 154.686 805.385 157.227 801.302 161.505C797.219 165.784 794.94 171.471 794.94 177.385C794.94 183.3 797.219 188.987 801.302 193.265C805.385 197.543 810.96 200.084 816.868 200.36C821.538 200.318 826.079 198.83 829.868 196.1C830.056 195.967 830.216 195.798 830.338 195.602C830.46 195.406 830.542 195.188 830.578 194.96C830.616 194.768 830.605 194.57 830.543 194.384C830.482 194.198 830.373 194.031 830.228 193.9C830.077 193.771 829.901 193.675 829.711 193.617C829.521 193.56 829.321 193.542 829.123 193.566C828.926 193.589 828.736 193.653 828.565 193.754C828.393 193.854 828.245 193.989 828.128 194.15C827.298 195.25 824.798 197.15 817.408 197.28C812.13 197.352 807.04 195.324 803.258 191.642C799.475 187.961 797.31 182.928 797.238 177.65C797.166 172.372 799.194 167.282 802.876 163.5C806.557 159.717 811.59 157.552 816.868 157.48C827.798 157.36 836.648 165.1 836.648 175.91C836.648 182.79 831.858 185.98 826.078 185.91C824.238 186.03 823.868 185.3 824.078 182.72C824.278 180.6 826.308 171.77 827.018 168.72C827.08 168.464 827.082 168.197 827.023 167.94C826.965 167.683 826.848 167.443 826.681 167.239C826.515 167.034 826.303 166.871 826.063 166.762C825.823 166.653 825.561 166.601 825.298 166.61H825.178C824.798 166.655 824.445 166.826 824.174 167.096C823.904 167.367 823.733 167.72 823.688 168.1C823.626 168.598 823.592 169.099 823.588 169.6C822.915 168.392 821.936 167.382 820.75 166.671C819.563 165.96 818.211 165.573 816.828 165.55C810.318 165.67 804.668 171.55 804.418 180.17C804.418 185.94 807.488 189.26 812.768 189.26C814.327 189.225 815.854 188.816 817.222 188.068C818.59 187.319 819.758 186.254 820.628 184.96C820.628 184.96 820.518 188.57 824.978 188.81ZM813.308 186.23C809.988 186.23 808.028 183.77 808.028 179.84C808.028 173.08 812.578 168.78 816.878 168.78C820.688 168.78 822.158 171.36 822.288 174.78C822.238 180.34 818.668 186.23 813.268 186.23H813.308Z" fill="#9FA8DA"/>
<path opacity="0.3" d="M460.318 234.06C465.958 234.06 468.578 231.06 468.578 226.97C468.578 219.88 462.868 214.79 455.778 214.79C452.428 214.883 449.247 216.28 446.91 218.682C444.574 221.085 443.267 224.304 443.267 227.655C443.267 231.006 444.574 234.225 446.91 236.628C449.247 239.03 452.428 240.427 455.778 240.52C458.392 240.498 460.935 239.667 463.058 238.14C463.27 237.987 463.413 237.757 463.458 237.5C463.479 237.393 463.471 237.282 463.436 237.179C463.401 237.075 463.34 236.983 463.258 236.91C463.173 236.838 463.074 236.784 462.967 236.751C462.86 236.719 462.748 236.709 462.637 236.722C462.527 236.736 462.42 236.771 462.323 236.828C462.227 236.884 462.144 236.96 462.078 237.05C461.608 237.66 460.208 238.71 456.078 238.8C454.59 238.86 453.105 238.621 451.71 238.098C450.316 237.574 449.041 236.776 447.96 235.752C446.879 234.727 446.014 233.497 445.416 232.133C444.819 230.768 444.501 229.298 444.481 227.809C444.461 226.32 444.739 224.842 445.3 223.462C445.86 222.082 446.692 220.829 447.745 219.775C448.798 218.722 450.051 217.891 451.431 217.33C452.811 216.769 454.289 216.49 455.778 216.51C461.898 216.44 466.858 220.78 466.858 226.83C466.858 230.68 464.178 232.47 460.938 232.4C459.938 232.47 459.698 232.06 459.838 230.61C459.948 229.42 461.088 224.48 461.488 222.75C461.515 222.604 461.509 222.455 461.47 222.312C461.432 222.169 461.363 222.036 461.267 221.923C461.171 221.81 461.052 221.72 460.917 221.659C460.782 221.598 460.636 221.568 460.488 221.57H460.418C460.208 221.604 460.015 221.703 459.866 221.854C459.716 222.005 459.619 222.2 459.588 222.41C459.552 222.689 459.532 222.969 459.528 223.25C459.152 222.574 458.605 222.008 457.941 221.61C457.278 221.212 456.522 220.994 455.748 220.98C452.098 221.05 448.938 224.35 448.798 229.17C448.798 232.4 450.518 234.26 453.478 234.26C454.351 234.239 455.205 234.01 455.971 233.59C456.737 233.171 457.391 232.574 457.878 231.85C457.879 232.16 457.945 232.466 458.071 232.749C458.198 233.031 458.381 233.285 458.611 233.493C458.84 233.701 459.111 233.858 459.405 233.956C459.699 234.054 460.01 234.089 460.318 234.06ZM453.778 232.62C451.918 232.62 450.778 231.24 450.778 229.04C450.778 225.26 453.328 222.85 455.778 222.85C457.908 222.85 458.778 224.29 458.778 226.22C458.808 229.31 456.808 232.62 453.788 232.62H453.778Z" fill="#9FA8DA"/>
<path opacity="0.3" d="M526.128 287.99C531.768 287.99 534.388 284.99 534.388 280.9C534.388 273.81 528.678 268.72 521.588 268.72C518.238 268.813 515.057 270.21 512.72 272.612C510.384 275.014 509.077 278.233 509.077 281.585C509.077 284.936 510.384 288.155 512.72 290.557C515.057 292.96 518.238 294.356 521.588 294.45C524.202 294.428 526.746 293.596 528.868 292.07C529.08 291.917 529.223 291.687 529.268 291.43C529.289 291.323 529.281 291.212 529.246 291.108C529.211 291.005 529.15 290.912 529.068 290.84C528.983 290.767 528.884 290.713 528.777 290.681C528.67 290.649 528.558 290.639 528.447 290.652C528.337 290.665 528.23 290.701 528.133 290.758C528.037 290.814 527.954 290.89 527.888 290.98C527.418 291.59 526.018 292.64 521.888 292.73C520.4 292.79 518.915 292.551 517.52 292.027C516.126 291.504 514.851 290.706 513.77 289.682C512.689 288.657 511.824 287.427 511.227 286.062C510.629 284.698 510.311 283.228 510.291 281.739C510.271 280.25 510.549 278.771 511.11 277.392C511.67 276.012 512.502 274.758 513.555 273.705C514.608 272.652 515.861 271.82 517.241 271.259C518.621 270.699 520.099 270.42 521.588 270.44C527.708 270.37 532.668 274.71 532.668 280.76C532.668 284.61 529.988 286.4 526.748 286.33C525.748 286.4 525.508 285.99 525.648 284.54C525.758 283.35 526.898 278.41 527.298 276.68C527.325 276.534 527.319 276.385 527.28 276.242C527.242 276.099 527.173 275.966 527.077 275.853C526.982 275.74 526.862 275.65 526.727 275.589C526.593 275.528 526.446 275.497 526.298 275.5H526.228C526.018 275.534 525.825 275.633 525.676 275.784C525.527 275.935 525.429 276.13 525.398 276.34C525.362 276.618 525.342 276.899 525.338 277.18C524.962 276.504 524.415 275.938 523.751 275.54C523.088 275.141 522.332 274.924 521.558 274.91C517.908 274.98 514.748 278.28 514.608 283.1C514.608 286.33 516.328 288.19 519.288 288.19C520.161 288.169 521.016 287.939 521.781 287.52C522.547 287.101 523.201 286.504 523.688 285.78C523.689 286.089 523.755 286.395 523.881 286.678C524.008 286.961 524.191 287.215 524.421 287.422C524.65 287.63 524.921 287.788 525.215 287.886C525.509 287.984 525.82 288.019 526.128 287.99ZM519.588 286.55C517.728 286.55 516.588 285.17 516.588 282.97C516.588 279.19 519.138 276.78 521.588 276.78C523.718 276.78 524.588 278.22 524.588 280.15C524.618 283.24 522.628 286.54 519.598 286.54L519.588 286.55Z" fill="#9FA8DA"/>
<path opacity="0.3" d="M722.648 222.15C728.288 222.15 730.908 219.15 730.908 215.06C730.908 207.97 725.198 202.88 718.108 202.88C714.758 202.973 711.577 204.37 709.24 206.772C706.904 209.175 705.597 212.394 705.597 215.745C705.597 219.096 706.904 222.315 709.24 224.718C711.577 227.12 714.758 228.516 718.108 228.61C720.722 228.588 723.266 227.756 725.388 226.23C725.6 226.077 725.743 225.847 725.788 225.59C725.809 225.483 725.801 225.372 725.766 225.268C725.731 225.165 725.67 225.072 725.588 225C725.503 224.928 725.404 224.874 725.297 224.841C725.191 224.809 725.078 224.799 724.967 224.812C724.857 224.825 724.75 224.861 724.653 224.918C724.557 224.974 724.474 225.05 724.408 225.14C723.938 225.75 722.538 226.8 718.408 226.89C716.92 226.95 715.435 226.711 714.04 226.187C712.646 225.664 711.371 224.866 710.29 223.842C709.209 222.817 708.344 221.587 707.747 220.222C707.149 218.858 706.831 217.388 706.811 215.899C706.791 214.41 707.069 212.932 707.63 211.552C708.19 210.172 709.022 208.918 710.075 207.865C711.128 206.812 712.381 205.98 713.761 205.42C715.141 204.859 716.619 204.58 718.108 204.6C724.228 204.53 729.188 208.87 729.188 214.92C729.188 218.77 726.508 220.56 723.268 220.49C722.268 220.56 722.028 220.15 722.168 218.7C722.278 217.51 723.418 212.57 723.818 210.84C723.845 210.694 723.839 210.545 723.8 210.402C723.762 210.259 723.693 210.126 723.597 210.013C723.502 209.9 723.382 209.81 723.247 209.749C723.113 209.688 722.966 209.657 722.818 209.66H722.748C722.538 209.694 722.345 209.793 722.196 209.944C722.047 210.095 721.949 210.29 721.918 210.5C721.882 210.778 721.862 211.059 721.858 211.34C721.482 210.664 720.935 210.098 720.271 209.7C719.608 209.302 718.852 209.084 718.078 209.07C714.428 209.14 711.268 212.44 711.128 217.26C711.128 220.49 712.848 222.35 715.808 222.35C716.681 222.329 717.536 222.099 718.301 221.68C719.067 221.261 719.721 220.664 720.208 219.94C720.209 220.25 720.275 220.556 720.401 220.838C720.528 221.121 720.711 221.375 720.941 221.583C721.17 221.791 721.441 221.948 721.735 222.046C722.029 222.144 722.34 222.179 722.648 222.15ZM716.108 220.71C714.248 220.71 713.108 219.33 713.108 217.13C713.108 213.35 715.658 210.94 718.108 210.94C720.238 210.94 721.108 212.38 721.108 214.31C721.138 217.43 719.148 220.73 716.118 220.73L716.108 220.71Z" fill="#9FA8DA"/>
<path opacity="0.3" d="M590.118 165.51C595.758 165.51 598.378 162.51 598.378 158.42C598.378 151.33 592.668 146.24 585.578 146.24C582.228 146.334 579.047 147.73 576.71 150.133C574.374 152.535 573.067 155.754 573.067 159.105C573.067 162.456 574.374 165.676 576.71 168.078C579.047 170.48 582.228 171.877 585.578 171.97C588.192 171.948 590.736 171.117 592.858 169.59C593.07 169.437 593.213 169.208 593.258 168.95C593.279 168.843 593.271 168.732 593.236 168.629C593.201 168.525 593.14 168.433 593.058 168.36C592.973 168.288 592.874 168.234 592.767 168.202C592.66 168.169 592.548 168.159 592.437 168.173C592.327 168.186 592.22 168.222 592.123 168.278C592.027 168.334 591.944 168.41 591.878 168.5C591.408 169.11 590.008 170.16 585.878 170.25C584.39 170.31 582.905 170.071 581.51 169.548C580.116 169.024 578.841 168.227 577.76 167.202C576.679 166.178 575.814 164.947 575.216 163.583C574.619 162.219 574.301 160.749 574.281 159.259C574.261 157.77 574.539 156.292 575.1 154.912C575.66 153.532 576.492 152.279 577.545 151.226C578.598 150.172 579.851 149.341 581.231 148.78C582.611 148.219 584.089 147.94 585.578 147.96C591.698 147.89 596.658 152.23 596.658 158.28C596.658 162.13 593.978 163.92 590.738 163.85C589.738 163.92 589.498 163.51 589.638 162.06C589.748 160.87 590.888 155.93 591.288 154.2C591.315 154.055 591.309 153.905 591.27 153.762C591.232 153.619 591.163 153.486 591.067 153.374C590.972 153.261 590.852 153.17 590.717 153.109C590.583 153.048 590.436 153.018 590.288 153.02H590.218C590.008 153.054 589.815 153.154 589.666 153.305C589.516 153.456 589.419 153.65 589.388 153.86C589.352 154.139 589.332 154.419 589.328 154.7C588.952 154.024 588.405 153.459 587.741 153.06C587.078 152.662 586.322 152.445 585.548 152.43C581.898 152.5 578.738 155.8 578.598 160.62C578.598 163.85 580.318 165.71 583.278 165.71C584.151 165.689 585.006 165.46 585.771 165.04C586.537 164.621 587.191 164.024 587.678 163.3C587.679 163.61 587.745 163.916 587.871 164.199C587.998 164.482 588.181 164.735 588.411 164.943C588.64 165.151 588.911 165.309 589.205 165.406C589.499 165.504 589.81 165.539 590.118 165.51ZM583.578 164.07C581.718 164.07 580.578 162.69 580.578 160.49C580.578 156.71 583.128 154.3 585.578 154.3C587.708 154.3 588.578 155.74 588.578 157.67C588.598 160.76 586.608 164.06 583.578 164.06V164.07Z" fill="#9FA8DA"/>
<path opacity="0.5" d="M658.578 122.09C668.648 122.09 673.318 116.68 673.318 109.44C673.318 96.7904 663.118 87.6904 650.468 87.6904C644.56 87.9661 638.985 90.5071 634.902 94.7855C630.818 99.064 628.54 104.751 628.54 110.665C628.54 116.58 630.818 122.267 634.902 126.545C638.985 130.824 644.56 133.365 650.468 133.64C655.137 133.598 659.679 132.11 663.468 129.38C663.656 129.247 663.816 129.078 663.938 128.882C664.06 128.686 664.142 128.468 664.178 128.24C664.216 128.049 664.204 127.85 664.143 127.664C664.082 127.478 663.973 127.312 663.828 127.18C663.677 127.052 663.501 126.955 663.311 126.898C663.12 126.84 662.92 126.823 662.723 126.846C662.526 126.87 662.336 126.934 662.165 127.034C661.993 127.135 661.845 127.27 661.728 127.43C660.898 128.53 658.398 130.43 651.008 130.56C648.395 130.596 645.8 130.116 643.372 129.149C640.944 128.182 638.73 126.746 636.857 124.923C634.985 123.1 633.489 120.926 632.456 118.525C631.423 116.124 630.873 113.544 630.838 110.93C630.802 108.317 631.282 105.722 632.249 103.294C633.217 100.867 634.653 98.6529 636.476 96.7799C638.298 94.9069 640.472 93.4114 642.873 92.3785C645.274 91.3457 647.855 90.7959 650.468 90.7604C661.398 90.6404 670.248 98.3804 670.248 109.19C670.248 116.07 665.458 119.26 659.678 119.19C657.838 119.31 657.468 118.58 657.678 116C657.878 113.88 659.908 105.05 660.618 102C660.68 101.744 660.681 101.477 660.623 101.22C660.565 100.963 660.448 100.723 660.281 100.519C660.115 100.315 659.903 100.152 659.663 100.043C659.423 99.9337 659.161 99.8815 658.898 99.8904H658.778C658.398 99.935 658.045 100.106 657.774 100.377C657.504 100.647 657.333 101.001 657.288 101.38C657.226 101.878 657.192 102.379 657.188 102.88C656.515 101.672 655.536 100.662 654.35 99.951C653.163 99.2402 651.811 98.8537 650.428 98.8304C643.918 98.9504 638.268 104.83 638.018 113.45C638.018 119.22 641.088 122.54 646.368 122.54C647.927 122.505 649.454 122.096 650.822 121.348C652.189 120.6 653.358 119.534 654.228 118.24C654.228 118.24 654.158 121.84 658.578 122.09ZM646.908 119.51C643.588 119.51 641.628 117.05 641.628 113.12C641.628 106.36 646.178 102.06 650.478 102.06C654.288 102.06 655.758 104.64 655.888 108.06C655.878 113.61 652.318 119.51 646.908 119.51V119.51Z" fill="#9FA8DA"/>
<g opacity="0.5">
<path opacity="0.5" d="M826.378 328.82C857.538 328.82 871.978 312.1 871.978 289.68C871.978 250.54 840.438 222.41 801.288 222.41C762.138 222.41 730.598 254.33 730.598 293.48C730.598 332.63 762.138 364.55 801.288 364.55C815.737 364.424 829.792 359.823 841.518 351.38C842.1 350.969 842.594 350.446 842.972 349.841C843.35 349.237 843.603 348.564 843.718 347.86C843.833 347.267 843.793 346.655 843.602 346.082C843.411 345.509 843.076 344.995 842.628 344.59C842.161 344.193 841.616 343.897 841.029 343.719C840.442 343.542 839.824 343.488 839.215 343.56C838.606 343.633 838.019 343.83 837.489 344.139C836.96 344.449 836.5 344.865 836.138 345.36C833.558 348.75 825.828 354.51 802.978 355.03C768.398 355.81 739.468 328.28 739.358 293.7C739.248 259.4 767.418 232.31 801.308 231.93C835.198 231.55 862.498 255.49 862.498 288.93C862.498 310.21 847.678 320.09 829.818 319.71C824.118 320.09 822.978 317.81 823.738 309.83C824.358 303.28 830.628 275.96 832.848 266.4C833.04 265.608 833.046 264.781 832.865 263.986C832.684 263.191 832.323 262.448 831.807 261.816C831.292 261.184 830.638 260.679 829.896 260.342C829.154 260.004 828.343 259.843 827.528 259.87H827.148C825.974 260.012 824.882 260.545 824.048 261.383C823.214 262.221 822.685 263.316 822.548 264.49C822.352 266.026 822.246 267.572 822.228 269.12C818.808 262.28 810.828 256.96 801.328 256.58C781.188 256.96 763.708 275.2 762.948 301.8C762.948 319.66 772.448 329.92 788.788 329.92C800.188 329.92 808.548 323.08 813.108 316.62C813.068 316.66 812.688 328.06 826.378 328.82ZM790.278 320.82C780.018 320.82 773.938 313.22 773.938 301.06C773.938 280.16 787.998 266.86 801.298 266.86C813.078 266.86 817.638 274.86 818.018 285.48C817.978 302.59 806.978 320.84 790.268 320.84L790.278 320.82Z" fill="url(#paint7_linear)"/>
</g>
<path d="M825.488 327.57C855.548 327.57 869.488 311.44 869.488 289.81C869.488 252.05 839.058 224.92 801.298 224.92C763.538 224.92 733.108 255.71 733.108 293.47C733.108 331.23 763.538 362.02 801.298 362.02C815.233 361.898 828.788 357.461 840.098 349.32C840.659 348.922 841.136 348.417 841.5 347.833C841.864 347.249 842.108 346.599 842.218 345.92C842.331 345.347 842.293 344.755 842.109 344.202C841.925 343.648 841.601 343.151 841.168 342.76C840.717 342.376 840.192 342.09 839.626 341.919C839.06 341.748 838.464 341.695 837.876 341.765C837.289 341.834 836.722 342.024 836.211 342.323C835.7 342.621 835.257 343.022 834.908 343.5C832.418 346.77 824.958 352.33 802.908 352.83C769.548 353.59 741.648 327.03 741.538 293.67C741.428 260.58 768.598 234.45 801.298 234.08C833.998 233.71 860.298 256.81 860.298 289.08C860.298 309.61 845.998 319.14 828.768 318.77C823.268 319.14 822.168 316.94 822.898 309.24C823.498 302.92 829.538 276.57 831.678 267.35C831.862 266.586 831.866 265.79 831.692 265.024C831.517 264.258 831.168 263.543 830.672 262.934C830.175 262.325 829.545 261.839 828.829 261.514C828.114 261.189 827.333 261.034 826.548 261.06H826.178C825.044 261.196 823.99 261.71 823.184 262.52C822.379 263.329 821.869 264.386 821.738 265.52C821.548 267.003 821.445 268.495 821.428 269.99C818.128 263.39 810.428 258.26 801.268 257.89C781.838 258.26 764.978 275.89 764.268 301.52C764.268 318.75 773.428 328.65 789.198 328.65C800.198 328.65 808.258 322.05 812.658 315.82C812.658 315.84 812.288 326.83 825.488 327.57ZM790.658 319.87C780.758 319.87 774.898 312.54 774.898 300.81C774.898 280.65 788.458 267.81 801.298 267.81C812.658 267.81 817.058 275.51 817.428 285.81C817.418 302.27 806.788 319.87 790.658 319.87V319.87Z" fill="#9FA8DA"/>
<defs>
<linearGradient id="paint0_linear" x1="83080.9" y1="47518.3" x2="83080.9" y2="34203.5" gradientUnits="userSpaceOnUse">
<stop stop-color="#808080" stop-opacity="0.25"/>
<stop offset="0.54" stop-color="#808080" stop-opacity="0.12"/>
<stop offset="1" stop-color="#808080" stop-opacity="0.1"/>
</linearGradient>
<linearGradient id="paint1_linear" x1="56844.2" y1="20369.3" x2="56844.2" y2="15777.9" gradientUnits="userSpaceOnUse">
<stop stop-color="#808080" stop-opacity="0.25"/>
<stop offset="0.54" stop-color="#808080" stop-opacity="0.12"/>
<stop offset="1" stop-color="#808080" stop-opacity="0.1"/>
</linearGradient>
<linearGradient id="paint2_linear" x1="65391.1" y1="26064.5" x2="65391.1" y2="21204.3" gradientUnits="userSpaceOnUse">
<stop stop-color="#808080" stop-opacity="0.25"/>
<stop offset="0.54" stop-color="#808080" stop-opacity="0.12"/>
<stop offset="1" stop-color="#808080" stop-opacity="0.1"/>
</linearGradient>
<linearGradient id="paint3_linear" x1="56501" y1="31775.2" x2="56501" y2="27358.3" gradientUnits="userSpaceOnUse">
<stop stop-color="#808080" stop-opacity="0.25"/>
<stop offset="0.54" stop-color="#808080" stop-opacity="0.12"/>
<stop offset="1" stop-color="#808080" stop-opacity="0.1"/>
</linearGradient>
<linearGradient id="paint4_linear" x1="52571.3" y1="35011" x2="52571.3" y2="30227.9" gradientUnits="userSpaceOnUse">
<stop stop-color="#808080" stop-opacity="0.25"/>
<stop offset="0.54" stop-color="#808080" stop-opacity="0.12"/>
<stop offset="1" stop-color="#808080" stop-opacity="0.1"/>
</linearGradient>
<linearGradient id="paint5_linear" x1="52571.3" y1="42513.9" x2="52571.3" y2="37730.8" gradientUnits="userSpaceOnUse">
<stop stop-color="#808080" stop-opacity="0.25"/>
<stop offset="0.54" stop-color="#808080" stop-opacity="0.12"/>
<stop offset="1" stop-color="#808080" stop-opacity="0.1"/>
</linearGradient>
<linearGradient id="paint6_linear" x1="63670.2" y1="46933.5" x2="63670.2" y2="42075.4" gradientUnits="userSpaceOnUse">
<stop stop-color="#808080" stop-opacity="0.25"/>
<stop offset="0.54" stop-color="#808080" stop-opacity="0.12"/>
<stop offset="1" stop-color="#808080" stop-opacity="0.1"/>
</linearGradient>
<linearGradient id="paint7_linear" x1="142437" y1="85135.4" x2="142437" y2="64933.1" gradientUnits="userSpaceOnUse">
<stop stop-color="#808080" stop-opacity="0.25"/>
<stop offset="0.54" stop-color="#808080" stop-opacity="0.12"/>
<stop offset="1" stop-color="#808080" stop-opacity="0.1"/>
</linearGradient>
</defs>
</svg>
